<?xml version="1.0" encoding="us-ascii" standalone="no"?><svg xmlns="http://www.w3.org/2000/svg" xmlns:xlink="http://www.w3.org/1999/xlink" contentStyleType="text/css" height="907px" preserveAspectRatio="none" style="width:521px;height:907px;background:#FFFFFF;" version="1.1" viewBox="0 0 521 907" width="521px" zoomAndPan="magnify"><defs/><g><!--cluster rdf--><g id="cluster_rdf"><path d="M8.5,6 L30.5,6 A3.75,3.75 0 0 1 33,8.5 L40,28.4883 L511.5,28.4883 A2.5,2.5 0 0 1 514,30.9883 L514,898.47 A2.5,2.5 0 0 1 511.5,900.97 L8.5,900.97 A2.5,2.5 0 0 1 6,898.47 L6,8.5 A2.5,2.5 0 0 1 8.5,6 " fill="none" style="stroke:#000000;stroke-width:1.5;"/><line style="stroke:#000000;stroke-width:1.5;" x1="6" x2="40" y1="28.4883" y2="28.4883"/><text fill="#000000" font-family="sans-serif" font-size="14" font-weight="bold" lengthAdjust="spacing" textLength="21" x="10" y="21.5352">rdf</text><text fill="#000000" font-family="sans-serif" font-size="14" font-style="italic" lengthAdjust="spacing" textLength="66" x="231" y="44.0234">&#171;module&#187;</text></g><!--cluster core--><g id="cluster_core"><path d="M32.5,65 L63.5,65 A3.75,3.75 0 0 1 66,67.5 L73,87.4883 L487.5,87.4883 A2.5,2.5 0 0 1 490,89.9883 L490,874.47 A2.5,2.5 0 0 1 487.5,876.97 L32.5,876.97 A2.5,2.5 0 0 1 30,874.47 L30,67.5 A2.5,2.5 0 0 1 32.5,65 " fill="none" style="stroke:#000000;stroke-width:1.5;"/><line style="stroke:#000000;stroke-width:1.5;" x1="30" x2="73" y1="87.4883" y2="87.4883"/><text fill="#000000" font-family="sans-serif" font-size="14" font-weight="bold" lengthAdjust="spacing" textLength="30" x="34" y="80.5352">core</text><text fill="#000000" font-family="sans-serif" font-size="14" font-style="italic" lengthAdjust="spacing" textLength="66" x="231" y="103.0234">&#171;module&#187;</text></g><!--class name--><g id="elem_name"><rect codeLine="7" fill="#F1F1F1" height="40.6211" id="name" rx="2.5" ry="2.5" style="stroke:#181818;stroke-width:0.5;" width="57" x="111.5" y="820.35"/><text fill="#000000" font-family="sans-serif" font-size="12" font-style="italic" lengthAdjust="spacing" textLength="55" x="112.5" y="836.9516">&#171;module&#187;</text><text fill="#000000" font-family="sans-serif" font-size="14" lengthAdjust="spacing" textLength="38" x="121" y="853.018">name</text></g><!--class namespace--><g id="elem_namespace"><rect codeLine="8" fill="#F1F1F1" height="40.6211" id="namespace" rx="2.5" ry="2.5" style="stroke:#181818;stroke-width:0.5;" width="83" x="176.5" y="719.73"/><text fill="#000000" font-family="sans-serif" font-size="12" font-style="italic" lengthAdjust="spacing" textLength="55" x="190.5" y="736.3316">&#171;module&#187;</text><text fill="#000000" font-family="sans-serif" font-size="14" lengthAdjust="spacing" textLength="77" x="179.5" y="752.398">namespace</text></g><!--class nsmap--><g id="elem_nsmap"><rect codeLine="9" fill="#F1F1F1" height="40.6211" id="nsmap" rx="2.5" ry="2.5" style="stroke:#181818;stroke-width:0.5;" width="57" x="46.5" y="619.11"/><text fill="#000000" font-family="sans-serif" font-size="12" font-style="italic" lengthAdjust="spacing" textLength="55" x="47.5" y="635.7116">&#171;module&#187;</text><text fill="#000000" font-family="sans-serif" font-size="14" lengthAdjust="spacing" textLength="46" x="52" y="651.778">nsmap</text></g><!--class literal--><g id="elem_literal"><rect codeLine="10" fill="#F1F1F1" height="40.6211" id="literal" rx="2.5" ry="2.5" style="stroke:#181818;stroke-width:0.5;" width="57" x="278.5" y="619.11"/><text fill="#000000" font-family="sans-serif" font-size="12" font-style="italic" lengthAdjust="spacing" textLength="55" x="279.5" y="635.7116">&#171;module&#187;</text><text fill="#000000" font-family="sans-serif" font-size="14" lengthAdjust="spacing" textLength="39" x="287.5" y="651.778">literal</text></g><!--class statement--><g id="elem_statement"><rect codeLine="11" fill="#F1F1F1" height="40.6211" id="statement" rx="2.5" ry="2.5" style="stroke:#181818;stroke-width:0.5;" width="74" x="178" y="518.49"/><text fill="#000000" font-family="sans-serif" font-size="12" font-style="italic" lengthAdjust="spacing" textLength="55" x="187.5" y="535.0916">&#171;module&#187;</text><text fill="#000000" font-family="sans-serif" font-size="14" lengthAdjust="spacing" textLength="68" x="181" y="551.158">statement</text></g><!--class triple--><g id="elem_triple"><rect codeLine="12" fill="#F1F1F1" height="40.6211" id="triple" rx="2.5" ry="2.5" style="stroke:#181818;stroke-width:0.5;" width="57" x="231.5" y="417.86"/><text fill="#000000" font-family="sans-serif" font-size="12" font-style="italic" lengthAdjust="spacing" textLength="55" x="232.5" y="434.4616">&#171;module&#187;</text><text fill="#000000" font-family="sans-serif" font-size="14" lengthAdjust="spacing" textLength="36" x="242" y="450.528">triple</text></g><!--class graph--><g id="elem_graph"><rect codeLine="13" fill="#F1F1F1" height="40.6211" id="graph" rx="2.5" ry="2.5" style="stroke:#181818;stroke-width:0.5;" width="57" x="231.5" y="317.24"/><text fill="#000000" font-family="sans-serif" font-size="12" font-style="italic" lengthAdjust="spacing" textLength="55" x="232.5" y="333.8416">&#171;module&#187;</text><text fill="#000000" font-family="sans-serif" font-size="14" lengthAdjust="spacing" textLength="41" x="239.5" y="349.908">graph</text></g><!--class quad--><g id="elem_quad"><rect codeLine="14" fill="#F1F1F1" height="40.6211" id="quad" rx="2.5" ry="2.5" style="stroke:#181818;stroke-width:0.5;" width="57" x="342.5" y="216.62"/><text fill="#000000" font-family="sans-serif" font-size="12" font-style="italic" lengthAdjust="spacing" textLength="55" x="343.5" y="233.2216">&#171;module&#187;</text><text fill="#000000" font-family="sans-serif" font-size="14" lengthAdjust="spacing" textLength="35" x="353.5" y="249.288">quad</text></g><!--class dataset--><g id="elem_dataset"><rect codeLine="15" fill="#F1F1F1" height="40.6211" id="dataset" rx="2.5" ry="2.5" style="stroke:#181818;stroke-width:0.5;" width="57" x="120.5" y="216.62"/><text fill="#000000" font-family="sans-serif" font-size="12" font-style="italic" lengthAdjust="spacing" textLength="55" x="121.5" y="233.2216">&#171;module&#187;</text><text fill="#000000" font-family="sans-serif" font-size="14" lengthAdjust="spacing" textLength="50" x="124" y="249.288">dataset</text></g><!--class gq--><g id="elem_gq"><rect codeLine="16" fill="#F1F1F1" height="40.6211" id="gq" rx="2.5" ry="2.5" style="stroke:#181818;stroke-width:0.5;" width="57" x="212.5" y="216.62"/><text fill="#000000" font-family="sans-serif" font-size="12" font-style="italic" lengthAdjust="spacing" textLength="55" x="213.5" y="233.2216">&#171;module&#187;</text><text fill="#000000" font-family="sans-serif" font-size="14" lengthAdjust="spacing" textLength="18" x="232" y="249.288">gq</text></g><!--class io--><g id="elem_io"><rect codeLine="17" fill="#F1F1F1" height="40.6211" id="io" rx="2.5" ry="2.5" style="stroke:#181818;stroke-width:0.5;" width="57" x="212.5" y="116"/><text fill="#000000" font-family="sans-serif" font-size="12" font-style="italic" lengthAdjust="spacing" textLength="55" x="213.5" y="132.6016">&#171;module&#187;</text><text fill="#000000" font-family="sans-serif" font-size="14" lengthAdjust="spacing" textLength="13" x="234.5" y="148.668">io</text></g><!--class v--><g id="elem_v"><rect codeLine="18" fill="#F1F1F1" height="40.6211" id="v" rx="2.5" ry="2.5" style="stroke:#181818;stroke-width:0.5;" width="57" x="85.5" y="518.49"/><text fill="#000000" font-family="sans-serif" font-size="12" font-style="italic" lengthAdjust="spacing" textLength="55" x="86.5" y="535.0916">&#171;module&#187;</text><text fill="#000000" font-family="sans-serif" font-size="14" lengthAdjust="spacing" textLength="7" x="110.5" y="551.158">v</text></g><!--link namespace to name--><g id="link_namespace_name"><path codeLine="20" d="M202.59,760.52 C189,777.7 173.0205,797.9028 159.3705,815.1728 " fill="none" id="namespace-to-name" style="stroke:#181818;stroke-width:1.0;stroke-dasharray:7.0,7.0;"/><polygon fill="#181818" points="155.65,819.88,164.3689,815.2995,158.7504,815.9573,158.0926,810.3389,155.65,819.88" style="stroke:#181818;stroke-width:1.0;"/></g><!--link nsmap to name--><g id="link_nsmap_name"><path codeLine="21" d="M81.35,659.88 C93.78,697.97 119.3199,776.2556 131.7599,814.4056 " fill="none" id="nsmap-to-name" style="stroke:#181818;stroke-width:1.0;stroke-dasharray:7.0,7.0;"/><polygon fill="#181818" points="133.62,820.11,134.6328,810.3134,132.0699,815.3563,127.0269,812.7935,133.62,820.11" style="stroke:#181818;stroke-width:1.0;"/></g><!--link nsmap to namespace--><g id="link_nsmap_namespace"><path codeLine="22" d="M103.59,660.14 C128.54,677.34 159.5904,698.754 184.5204,715.944 " fill="none" id="nsmap-to-namespace" style="stroke:#181818;stroke-width:1.0;stroke-dasharray:7.0,7.0;"/><polygon fill="#181818" points="189.46,719.35,184.3213,710.948,185.3437,716.5117,179.78,717.5341,189.46,719.35" style="stroke:#181818;stroke-width:1.0;"/></g><!--link literal to namespace--><g id="link_literal_namespace"><path codeLine="23" d="M289.42,659.9 C273.91,677.08 255.4491,697.535 239.8691,714.805 " fill="none" id="literal-to-namespace" style="stroke:#181818;stroke-width:1.0;stroke-dasharray:7.0,7.0;"/><polygon fill="#181818" points="235.85,719.26,244.8486,715.2568,239.1992,715.5475,238.9086,709.8981,235.85,719.26" style="stroke:#181818;stroke-width:1.0;"/></g><!--link statement to namespace--><g id="link_statement_namespace"><path codeLine="24" d="M215.29,559.26 C215.87,597.35 217.0388,675.3407 217.6188,713.4907 " fill="none" id="statement-to-namespace" style="stroke:#181818;stroke-width:1.0;stroke-dasharray:7.0,7.0;"/><polygon fill="#181818" points="217.71,719.49,221.5727,710.4302,217.634,714.4906,213.5736,710.5518,217.71,719.49" style="stroke:#181818;stroke-width:1.0;"/></g><!--link statement to literal--><g id="link_statement_literal"><path codeLine="25" d="M233.18,559.28 C249.2,576.46 268.3473,596.9826 284.4573,614.2526 " fill="none" id="statement-to-literal" style="stroke:#181818;stroke-width:1.0;stroke-dasharray:7.0,7.0;"/><polygon fill="#181818" points="288.55,618.64,285.3359,609.3304,285.1394,614.9838,279.4859,614.7873,288.55,618.64" style="stroke:#181818;stroke-width:1.0;"/></g><!--link triple to literal--><g id="link_triple_literal"><path codeLine="26" d="M264.59,458.64 C273.58,496.73 292.0124,574.8803 301.0124,613.0303 " fill="none" id="triple-to-literal" style="stroke:#181818;stroke-width:1.0;stroke-dasharray:7.0,7.0;"/><polygon fill="#181818" points="302.39,618.87,304.2167,609.192,301.242,614.0036,296.4304,611.0289,302.39,618.87" style="stroke:#181818;stroke-width:1.0;"/></g><!--link triple to statement--><g id="link_triple_statement"><path codeLine="27" d="M251.11,458.66 C243.27,475.84 234.3893,495.2907 226.5193,512.5507 " fill="none" id="triple-to-statement" style="stroke:#181818;stroke-width:1.0;stroke-dasharray:7.0,7.0;"/><polygon fill="#181818" points="224.03,518.01,231.4034,511.4806,226.1044,513.4606,224.1244,508.1616,224.03,518.01" style="stroke:#181818;stroke-width:1.0;"/></g><!--link graph to literal--><g id="link_graph_literal"><path codeLine="28" d="M275.26,358.11 C286.19,373.41 300,395.74 306,417.86 C325.51,489.74 316.8189,573.7733 311.0989,612.8533 " fill="none" id="graph-to-literal" style="stroke:#181818;stroke-width:1.0;stroke-dasharray:7.0,7.0;"/><polygon fill="#181818" points="310.23,618.79,315.4912,610.4642,310.9541,613.8427,307.5756,609.3056,310.23,618.79" style="stroke:#181818;stroke-width:1.0;"/></g><!--link graph to statement--><g id="link_graph_statement"><path codeLine="29" d="M244.71,358.1 C233.76,373.4 219.95,395.73 214,417.86 C204.75,452.25 207.4656,488.2683 210.8456,512.3383 " fill="none" id="graph-to-statement" style="stroke:#181818;stroke-width:1.0;stroke-dasharray:7.0,7.0;"/><polygon fill="#181818" points="211.68,518.28,214.3896,508.8112,210.9847,513.3286,206.4673,509.9237,211.68,518.28" style="stroke:#181818;stroke-width:1.0;"/></g><!--link graph to triple--><g id="link_graph_triple"><path codeLine="30" d="M260,358.04 C260,375.22 260,394.13 260,411.39 " fill="none" id="graph-to-triple" style="stroke:#181818;stroke-width:1.0;stroke-dasharray:7.0,7.0;"/><polygon fill="#181818" points="260,417.39,264,408.39,260,412.39,256,408.39,260,417.39" style="stroke:#181818;stroke-width:1.0;"/></g><!--link quad to graph--><g id="link_quad_graph"><path codeLine="31" d="M348.8,257.65 C329.44,274.85 305.9956,295.6951 286.6456,312.8851 " fill="none" id="quad-to-graph" style="stroke:#181818;stroke-width:1.0;stroke-dasharray:7.0,7.0;"/><polygon fill="#181818" points="282.16,316.87,291.545,313.8831,285.898,313.5493,286.2318,307.9023,282.16,316.87" style="stroke:#181818;stroke-width:1.0;"/></g><!--link quad to literal--><g id="link_quad_literal"><path codeLine="32" d="M370.15,257.52 C368.96,281.32 366.46,322.65 362,357.86 C350.59,448.01 344.59,470.17 326,559.11 C321.74,579.48 317.5755,596.7917 313.5455,612.7917 " fill="none" id="quad-to-literal" style="stroke:#181818;stroke-width:1.0;stroke-dasharray:7.0,7.0;"/><polygon fill="#181818" points="312.08,618.61,318.1571,610.8596,313.3012,613.7614,310.3994,608.9056,312.08,618.61" style="stroke:#181818;stroke-width:1.0;"/></g><!--link quad to statement--><g id="link_quad_statement"><path codeLine="33" d="M368.96,257.44 C363.98,297.85 348.35,392.46 306,458.49 C290.39,482.83 270.0315,500.4673 250.1015,514.7973 " fill="none" id="quad-to-statement" style="stroke:#181818;stroke-width:1.0;stroke-dasharray:7.0,7.0;"/><polygon fill="#181818" points="245.23,518.3,254.8723,516.2936,249.2896,515.3811,250.2021,509.7983,245.23,518.3" style="stroke:#181818;stroke-width:1.0;"/></g><!--link dataset to graph--><g id="link_dataset_graph"><path codeLine="34" d="M171.2,257.65 C190.56,274.85 214.0044,295.6951 233.3544,312.8851 " fill="none" id="dataset-to-graph" style="stroke:#181818;stroke-width:1.0;stroke-dasharray:7.0,7.0;"/><polygon fill="#181818" points="237.84,316.87,233.7682,307.9023,234.102,313.5493,228.455,313.8831,237.84,316.87" style="stroke:#181818;stroke-width:1.0;"/></g><!--link dataset to statement--><g id="link_dataset_statement"><path codeLine="35" d="M151.64,257.6 C157.05,296.38 170.46,385.3 189,458.49 C194.23,479.13 200.0106,496.57 205.7006,512.49 " fill="none" id="dataset-to-statement" style="stroke:#181818;stroke-width:1.0;stroke-dasharray:7.0,7.0;"/><polygon fill="#181818" points="207.72,518.14,208.4576,508.3188,206.0372,513.4317,200.9243,511.0113,207.72,518.14" style="stroke:#181818;stroke-width:1.0;"/></g><!--link dataset to triple--><g id="link_dataset_triple"><path codeLine="36" d="M159.41,257.55 C172.1,281.38 194.31,322.75 214,357.86 C225.45,378.27 235.8693,396.2176 245.2693,412.2076 " fill="none" id="dataset-to-triple" style="stroke:#181818;stroke-width:1.0;stroke-dasharray:7.0,7.0;"/><polygon fill="#181818" points="248.31,417.38,247.1972,407.5942,245.7761,413.0696,240.3006,411.6485,248.31,417.38" style="stroke:#181818;stroke-width:1.0;"/></g><!--link gq to statement--><g id="link_gq_statement"><path codeLine="37" d="M233.17,257.51 C227.11,273.38 218.94,296.44 214,317.24 C199.42,378.62 194.11,395.68 200,458.49 C201.92,479 205.2528,496.2486 208.8728,512.2086 " fill="none" id="gq-to-statement" style="stroke:#181818;stroke-width:1.0;stroke-dasharray:7.0,7.0;"/><polygon fill="#181818" points="210.2,518.06,212.1101,508.3981,209.094,513.1839,204.3083,510.1677,210.2,518.06" style="stroke:#181818;stroke-width:1.0;"/></g><!--link gq to graph--><g id="link_gq_graph"><path codeLine="38" d="M244.75,257.42 C248.06,274.59 251.7234,293.6186 255.0534,310.8786 " fill="none" id="gq-to-graph" style="stroke:#181818;stroke-width:1.0;stroke-dasharray:7.0,7.0;"/><polygon fill="#181818" points="256.19,316.77,258.4126,307.1752,255.2428,311.8605,250.5575,308.6907,256.19,316.77" style="stroke:#181818;stroke-width:1.0;"/></g><!--link io to namespace--><g id="link_io_namespace"><path codeLine="39" d="M269.7,141.28 C311.86,148.6 390.36,168.2 435,216.62 C472.9,257.73 473,280.64 473,336.55 C473,336.55 473,336.55 473,539.8 C473,646.68 337.8933,702.9388 265.5433,725.7088 " fill="none" id="io-to-namespace" style="stroke:#181818;stroke-width:1.0;stroke-dasharray:7.0,7.0;"/><polygon fill="#181818" points="259.82,727.51,269.6057,728.6237,264.5894,726.009,267.2041,720.9927,259.82,727.51" style="stroke:#181818;stroke-width:1.0;"/></g><!--link io to nsmap--><g id="link_io_nsmap"><path codeLine="40" d="M212.03,143.81 C175.8,153.46 114.35,175.08 80,216.62 C44.78,259.23 47,281.27 47,336.55 C47,336.55 47,336.55 47,439.18 C47,505.54 61.1108,577.2946 69.0708,612.8946 " fill="none" id="io-to-nsmap" style="stroke:#181818;stroke-width:1.0;stroke-dasharray:7.0,7.0;"/><polygon fill="#181818" points="70.38,618.75,72.3197,609.094,69.289,613.8705,64.5125,610.8397,70.38,618.75" style="stroke:#181818;stroke-width:1.0;"/></g><!--link io to literal--><g id="link_io_literal"><path codeLine="41" d="M269.98,141.71 C309.85,149.39 380.79,169.21 417,216.62 C449.76,259.51 436,282.59 436,336.55 C436,336.55 436,336.55 436,439.18 C436,515.62 372.7697,581.921 335.4597,614.831 " fill="none" id="io-to-literal" style="stroke:#181818;stroke-width:1.0;stroke-dasharray:7.0,7.0;"/><polygon fill="#181818" points="330.96,618.8,340.3555,615.8463,334.7097,615.4925,335.0635,609.8467,330.96,618.8" style="stroke:#181818;stroke-width:1.0;"/></g><!--link io to statement--><g id="link_io_statement"><path codeLine="42" d="M212.12,144.56 C179.04,154.59 126.39,176.2 103,216.62 C41.92,322.17 148.3289,461.8872 193.2789,513.7172 " fill="none" id="io-to-statement" style="stroke:#181818;stroke-width:1.0;stroke-dasharray:7.0,7.0;"/><polygon fill="#181818" points="197.21,518.25,194.3352,508.83,193.9341,514.4727,188.2915,514.0715,197.21,518.25" style="stroke:#181818;stroke-width:1.0;"/></g><!--link io to graph--><g id="link_io_graph"><path codeLine="43" d="M256.29,156.86 C267.24,172.16 281.05,194.49 287,216.62 C296.43,251.66 283.9702,287.6142 272.8202,311.4742 " fill="none" id="io-to-graph" style="stroke:#181818;stroke-width:1.0;stroke-dasharray:7.0,7.0;"/><polygon fill="#181818" points="270.28,316.91,277.7141,310.4498,272.3968,312.3802,270.4664,307.0629,270.28,316.91" style="stroke:#181818;stroke-width:1.0;"/></g><!--link io to dataset--><g id="link_io_dataset"><path codeLine="44" d="M222.82,156.8 C206.8,173.97 187.654,194.5038 171.544,211.7638 " fill="none" id="io-to-dataset" style="stroke:#181818;stroke-width:1.0;stroke-dasharray:7.0,7.0;"/><polygon fill="#181818" points="167.45,216.15,176.5152,212.3,170.8617,212.4948,170.6668,206.8413,167.45,216.15" style="stroke:#181818;stroke-width:1.0;"/></g><!--link io to gq--><g id="link_io_gq"><path codeLine="45" d="M241,156.8 C241,173.97 241,192.89 241,210.15 " fill="none" id="io-to-gq" style="stroke:#181818;stroke-width:1.0;stroke-dasharray:7.0,7.0;"/><polygon fill="#181818" points="241,216.15,245,207.15,241,211.15,237,207.15,241,216.15" style="stroke:#181818;stroke-width:1.0;"/></g><!--link v to name--><g id="link_v_name"><path codeLine="46" d="M115.74,559.35 C117.16,575.4 119.22,598.73 121,619.11 C127.46,693.19 134.4989,775.3118 137.7989,813.9118 " fill="none" id="v-to-name" style="stroke:#181818;stroke-width:1.0;stroke-dasharray:7.0,7.0;"/><polygon fill="#181818" points="138.31,819.89,141.5288,810.582,137.8841,814.9082,133.5579,811.2634,138.31,819.89" style="stroke:#181818;stroke-width:1.0;"/></g><!--link v to namespace--><g id="link_v_namespace"><path codeLine="47" d="M124.16,559.26 C144.04,597.35 185.1029,676.0214 205.0229,714.1714 " fill="none" id="v-to-namespace" style="stroke:#181818;stroke-width:1.0;stroke-dasharray:7.0,7.0;"/><polygon fill="#181818" points="207.8,719.49,207.1801,709.6607,205.4857,715.0578,200.0886,713.3635,207.8,719.49" style="stroke:#181818;stroke-width:1.0;"/></g><!--link v to nsmap--><g id="link_v_nsmap"><path codeLine="48" d="M106.29,559.28 C99.5,576.46 91.8566,595.7905 85.0266,613.0605 " fill="none" id="v-to-nsmap" style="stroke:#181818;stroke-width:1.0;stroke-dasharray:7.0,7.0;"/><polygon fill="#181818" points="82.82,618.64,89.8496,611.7418,84.6588,613.9904,82.4102,608.7997,82.82,618.64" style="stroke:#181818;stroke-width:1.0;"/></g><!--SRC=[ZP9RRiCW44N_MGKho0eYxsKA4niLOWp4KbHvxxM9mIcGSVdZdZiFPXYKH8x6XYStQBxGUJPiab1EQFICMH3Vq2DtyiQlLpFAXyQkup-ChoT1CJgiwNQ41k_v7SnVlZGCVirsul86BEdGAg03JNfyW806xu5q1QUifjlf7TY1T4mFaAH1GW2FT2VzH68radWkQCR7o2-NBjuE5ETy8iVOpDBWs_GO-N_udYlJVHKdAEV8yBMVLjX1gAXNyWpYCZSzEcgvB991NIEjlSxsJkYuehlrbtnupzGeitwQzYOIs5PTYkK3TxakkODcoVq9bNTAGYPp_GFd3rtFHTCBMzWl]--></g></svg>